<mxfile host="app.diagrams.net" modified="2020-09-20T12:27:23.452Z" agent="5.0 (Windows NT 10.0; Win64; x64) AppleWebKit/537.36 (KHTML, like Gecko) Chrome/85.0.4183.102 Safari/537.36" etag="vTea3FCMAWU9nmILE3YQ" version="13.6.10" type="github">
  <diagram id="6X_hmf_EJJS734PtGBnM" name="第 1 页">
    <mxGraphModel dx="4724" dy="761" grid="1" gridSize="10" guides="1" tooltips="1" connect="1" arrows="1" fold="1" page="1" pageScale="1" pageWidth="3300" pageHeight="4681" math="0" shadow="0">
      <root>
        <mxCell id="0" />
        <mxCell id="1" parent="0" />
        <mxCell id="N8du5w29IZQsb6Iyptna-2" value="::BookController" style="shape=umlLifeline;participant=umlControl;perimeter=lifelinePerimeter;whiteSpace=wrap;html=1;container=1;collapsible=0;recursiveResize=0;verticalAlign=top;spacingTop=36;outlineConnect=0;" vertex="1" parent="1">
          <mxGeometry x="380" y="80" width="40" height="1380" as="geometry" />
        </mxCell>
        <mxCell id="N8du5w29IZQsb6Iyptna-3" value="" style="html=1;points=[];perimeter=orthogonalPerimeter;" vertex="1" parent="N8du5w29IZQsb6Iyptna-2">
          <mxGeometry x="17.83" y="170" width="10" height="240" as="geometry" />
        </mxCell>
        <mxCell id="N8du5w29IZQsb6Iyptna-4" value="" style="shape=umlLifeline;participant=umlActor;perimeter=lifelinePerimeter;whiteSpace=wrap;html=1;container=1;collapsible=0;recursiveResize=0;verticalAlign=top;spacingTop=36;outlineConnect=0;" vertex="1" parent="1">
          <mxGeometry x="50" y="80" width="90" height="1370" as="geometry" />
        </mxCell>
        <mxCell id="N8du5w29IZQsb6Iyptna-5" value="&lt;b&gt;：书店管理员&lt;/b&gt;" style="text;html=1;strokeColor=none;fillColor=none;align=center;verticalAlign=middle;whiteSpace=wrap;rounded=0;" vertex="1" parent="N8du5w29IZQsb6Iyptna-4">
          <mxGeometry x="-10" y="40" width="80" height="20" as="geometry" />
        </mxCell>
        <mxCell id="N8du5w29IZQsb6Iyptna-6" value="&lt;span&gt;：书店首页&lt;/span&gt;" style="shape=umlLifeline;participant=umlBoundary;perimeter=lifelinePerimeter;whiteSpace=wrap;html=1;container=1;collapsible=0;recursiveResize=0;verticalAlign=top;spacingTop=36;outlineConnect=0;fontStyle=1" vertex="1" parent="1">
          <mxGeometry x="200" y="82.5" width="70" height="1370" as="geometry" />
        </mxCell>
        <mxCell id="N8du5w29IZQsb6Iyptna-7" value="" style="html=1;points=[];perimeter=orthogonalPerimeter;align=left;" vertex="1" parent="N8du5w29IZQsb6Iyptna-6">
          <mxGeometry x="31.47" y="500" width="10" height="700" as="geometry" />
        </mxCell>
        <mxCell id="N8du5w29IZQsb6Iyptna-52" value="调整购物车数目" style="html=1;verticalAlign=bottom;endArrow=block;entryX=0;entryY=0;" edge="1" parent="N8du5w29IZQsb6Iyptna-6">
          <mxGeometry relative="1" as="geometry">
            <mxPoint x="-119.4585714285713" y="527.5" as="sourcePoint" />
            <mxPoint x="41.470000000000255" y="527.5" as="targetPoint" />
          </mxGeometry>
        </mxCell>
        <mxCell id="N8du5w29IZQsb6Iyptna-26" value=":BookSerice" style="shape=umlLifeline;perimeter=lifelinePerimeter;whiteSpace=wrap;html=1;container=1;collapsible=0;recursiveResize=0;outlineConnect=0;" vertex="1" parent="1">
          <mxGeometry x="550" y="80" width="100" height="1370" as="geometry" />
        </mxCell>
        <mxCell id="N8du5w29IZQsb6Iyptna-27" value="" style="html=1;points=[];perimeter=orthogonalPerimeter;align=left;" vertex="1" parent="N8du5w29IZQsb6Iyptna-26">
          <mxGeometry x="47.83000000000001" y="180" width="10" height="180" as="geometry" />
        </mxCell>
        <mxCell id="N8du5w29IZQsb6Iyptna-28" value="listShopingCar()" style="html=1;verticalAlign=bottom;endArrow=block;entryX=0;entryY=0;" edge="1" parent="1" target="N8du5w29IZQsb6Iyptna-3">
          <mxGeometry relative="1" as="geometry">
            <mxPoint x="272.8299999999999" y="250.00000000000034" as="sourcePoint" />
          </mxGeometry>
        </mxCell>
        <mxCell id="N8du5w29IZQsb6Iyptna-29" value="return" style="html=1;verticalAlign=bottom;endArrow=open;dashed=1;endSize=8;exitX=0;exitY=0.95;" edge="1" parent="1" source="N8du5w29IZQsb6Iyptna-3">
          <mxGeometry relative="1" as="geometry">
            <mxPoint x="272.8299999999999" y="477.9999999999998" as="targetPoint" />
          </mxGeometry>
        </mxCell>
        <mxCell id="N8du5w29IZQsb6Iyptna-30" value="listShopingCar()" style="html=1;verticalAlign=bottom;endArrow=block;entryX=0;entryY=0;" edge="1" parent="1" target="N8du5w29IZQsb6Iyptna-27" source="N8du5w29IZQsb6Iyptna-2">
          <mxGeometry relative="1" as="geometry">
            <mxPoint x="720.4728571428577" y="269.99999999999955" as="sourcePoint" />
          </mxGeometry>
        </mxCell>
        <mxCell id="N8du5w29IZQsb6Iyptna-31" value="return" style="html=1;verticalAlign=bottom;endArrow=open;dashed=1;endSize=8;exitX=0;exitY=0.95;" edge="1" parent="1" source="N8du5w29IZQsb6Iyptna-27" target="N8du5w29IZQsb6Iyptna-3">
          <mxGeometry relative="1" as="geometry">
            <mxPoint x="722.47" y="418" as="targetPoint" />
          </mxGeometry>
        </mxCell>
        <mxCell id="N8du5w29IZQsb6Iyptna-32" value="显示购物车列表" style="html=1;verticalAlign=bottom;endArrow=open;dashed=1;endSize=8;exitX=0;exitY=0.95;" edge="1" parent="1">
          <mxGeometry relative="1" as="geometry">
            <mxPoint x="100" y="506" as="targetPoint" />
            <mxPoint x="262.8299999999999" y="505.4999999999993" as="sourcePoint" />
          </mxGeometry>
        </mxCell>
        <mxCell id="N8du5w29IZQsb6Iyptna-33" value=":BookTypeMapper" style="shape=umlLifeline;perimeter=lifelinePerimeter;whiteSpace=wrap;html=1;container=1;collapsible=0;recursiveResize=0;outlineConnect=0;" vertex="1" parent="1">
          <mxGeometry x="950" y="82.5" width="100" height="1375" as="geometry" />
        </mxCell>
        <mxCell id="N8du5w29IZQsb6Iyptna-34" value="" style="html=1;points=[];perimeter=orthogonalPerimeter;align=left;" vertex="1" parent="N8du5w29IZQsb6Iyptna-33">
          <mxGeometry x="40.47" y="285" width="10" height="48" as="geometry" />
        </mxCell>
        <mxCell id="N8du5w29IZQsb6Iyptna-35" value="listBookByIds()" style="html=1;verticalAlign=bottom;endArrow=block;" edge="1" parent="N8du5w29IZQsb6Iyptna-33">
          <mxGeometry relative="1" as="geometry">
            <mxPoint x="-697.696666666666" y="292" as="sourcePoint" />
            <mxPoint x="40.47" y="292" as="targetPoint" />
          </mxGeometry>
        </mxCell>
        <mxCell id="N8du5w29IZQsb6Iyptna-36" value="return" style="html=1;verticalAlign=bottom;endArrow=open;dashed=1;endSize=8;exitX=0;exitY=0.95;" edge="1" parent="N8du5w29IZQsb6Iyptna-33" source="N8du5w29IZQsb6Iyptna-34">
          <mxGeometry relative="1" as="geometry">
            <mxPoint x="-698.53" y="331" as="targetPoint" />
          </mxGeometry>
        </mxCell>
        <mxCell id="N8du5w29IZQsb6Iyptna-37" value="" style="html=1;points=[];perimeter=orthogonalPerimeter;align=left;" vertex="1" parent="N8du5w29IZQsb6Iyptna-33">
          <mxGeometry x="-189.03" y="625" width="10" height="50" as="geometry" />
        </mxCell>
        <mxCell id="N8du5w29IZQsb6Iyptna-38" value="" style="html=1;points=[];perimeter=orthogonalPerimeter;align=left;" vertex="1" parent="N8du5w29IZQsb6Iyptna-33">
          <mxGeometry x="-695.6700000000001" y="595" width="10" height="180" as="geometry" />
        </mxCell>
        <mxCell id="N8du5w29IZQsb6Iyptna-43" value="" style="html=1;points=[];perimeter=orthogonalPerimeter;align=left;" vertex="1" parent="N8du5w29IZQsb6Iyptna-33">
          <mxGeometry x="46.47" y="695" width="10" height="48" as="geometry" />
        </mxCell>
        <mxCell id="N8du5w29IZQsb6Iyptna-44" value="reduceInventoryById()" style="html=1;verticalAlign=bottom;endArrow=block;" edge="1" parent="N8du5w29IZQsb6Iyptna-33">
          <mxGeometry relative="1" as="geometry">
            <mxPoint x="-693.1966666666669" y="702.0000000000005" as="sourcePoint" />
            <mxPoint x="50.47" y="702" as="targetPoint" />
          </mxGeometry>
        </mxCell>
        <mxCell id="N8du5w29IZQsb6Iyptna-45" value="return" style="html=1;verticalAlign=bottom;endArrow=open;dashed=1;endSize=8;exitX=0;exitY=0.95;" edge="1" parent="N8du5w29IZQsb6Iyptna-33" source="N8du5w29IZQsb6Iyptna-43">
          <mxGeometry relative="1" as="geometry">
            <mxPoint x="-699.03" y="740.9999999999995" as="targetPoint" />
          </mxGeometry>
        </mxCell>
        <mxCell id="N8du5w29IZQsb6Iyptna-46" value="lincreaseGoodsByBookId()" style="html=1;verticalAlign=bottom;endArrow=block;entryX=0;entryY=0;" edge="1" parent="N8du5w29IZQsb6Iyptna-33" source="N8du5w29IZQsb6Iyptna-38" target="N8du5w29IZQsb6Iyptna-37">
          <mxGeometry relative="1" as="geometry">
            <mxPoint x="-693.0271428571432" y="594.9999999999995" as="sourcePoint" />
          </mxGeometry>
        </mxCell>
        <mxCell id="N8du5w29IZQsb6Iyptna-47" value="return" style="html=1;verticalAlign=bottom;endArrow=open;dashed=1;endSize=8;exitX=0;exitY=0.95;entryX=0.95;entryY=0.426;entryDx=0;entryDy=0;entryPerimeter=0;" edge="1" parent="N8du5w29IZQsb6Iyptna-33" source="N8du5w29IZQsb6Iyptna-37" target="N8du5w29IZQsb6Iyptna-38">
          <mxGeometry relative="1" as="geometry">
            <mxPoint x="-693.0271428571432" y="670.9999999999995" as="targetPoint" />
          </mxGeometry>
        </mxCell>
        <mxCell id="N8du5w29IZQsb6Iyptna-49" value="BookMapper" style="shape=umlLifeline;perimeter=lifelinePerimeter;whiteSpace=wrap;html=1;container=1;collapsible=0;recursiveResize=0;outlineConnect=0;" vertex="1" parent="1">
          <mxGeometry x="760" y="82.5" width="100" height="1372.5" as="geometry" />
        </mxCell>
        <mxCell id="N8du5w29IZQsb6Iyptna-54" value="[调整数量&amp;lt;0]减少数量" style="text;html=1;strokeColor=none;fillColor=none;align=left;verticalAlign=middle;whiteSpace=wrap;rounded=0;" vertex="1" parent="1">
          <mxGeometry x="-28.53" y="960" width="140" height="30" as="geometry" />
        </mxCell>
        <mxCell id="N8du5w29IZQsb6Iyptna-56" value="显示是否调整成功" style="html=1;verticalAlign=bottom;endArrow=open;dashed=1;endSize=8;exitX=0;exitY=0.95;" edge="1" parent="1">
          <mxGeometry relative="1" as="geometry">
            <mxPoint x="93.43352941176454" y="890" as="targetPoint" />
            <mxPoint x="260.47000000000025" y="890" as="sourcePoint" />
          </mxGeometry>
        </mxCell>
        <mxCell id="N8du5w29IZQsb6Iyptna-57" value="显示是否调整成功" style="html=1;verticalAlign=bottom;endArrow=open;dashed=1;endSize=8;exitX=0;exitY=0.95;" edge="1" parent="1">
          <mxGeometry relative="1" as="geometry">
            <mxPoint x="93.43352941176454" y="1274.5" as="targetPoint" />
            <mxPoint x="260.47000000000025" y="1274.5" as="sourcePoint" />
          </mxGeometry>
        </mxCell>
        <mxCell id="N8du5w29IZQsb6Iyptna-58" value="reduceGoodsByBookId" style="html=1;verticalAlign=bottom;endArrow=block;entryX=0;entryY=0;" edge="1" parent="1" source="N8du5w29IZQsb6Iyptna-7" target="N8du5w29IZQsb6Iyptna-60">
          <mxGeometry relative="1" as="geometry">
            <mxPoint x="646.47" y="1118" as="sourcePoint" />
          </mxGeometry>
        </mxCell>
        <mxCell id="N8du5w29IZQsb6Iyptna-59" value="return" style="html=1;verticalAlign=bottom;endArrow=open;dashed=1;endSize=8;exitX=0;exitY=0.95;" edge="1" parent="1" source="N8du5w29IZQsb6Iyptna-60" target="N8du5w29IZQsb6Iyptna-7">
          <mxGeometry relative="1" as="geometry">
            <mxPoint x="646.47" y="1194" as="targetPoint" />
          </mxGeometry>
        </mxCell>
        <mxCell id="N8du5w29IZQsb6Iyptna-60" value="" style="html=1;points=[];perimeter=orthogonalPerimeter;align=left;" vertex="1" parent="1">
          <mxGeometry x="716.47" y="1030" width="10" height="210" as="geometry" />
        </mxCell>
        <mxCell id="N8du5w29IZQsb6Iyptna-10" value="访问我的购物车" style="html=1;verticalAlign=bottom;endArrow=block;entryX=0;entryY=0;" edge="1" parent="1">
          <mxGeometry relative="1" as="geometry">
            <mxPoint x="95" y="230" as="sourcePoint" />
            <mxPoint x="262.8299999999999" y="230.00000000000045" as="targetPoint" />
          </mxGeometry>
        </mxCell>
      </root>
    </mxGraphModel>
  </diagram>
</mxfile>
